{"title":"Take.Me.Home.Tonight.2011.DVDRip.XViD-EP1C","uid":6457945,"size":736166505,"categoryP":"video","categoryS":"movies","magnet":"?xt=urn:btih:fee807e33804cbd1792fb9a70b379c2da702a0f1&amp;dn=Take.Me.Home.Tonight.2011.DVDRip.XViD-EP1C&amp;tr=udp%3A%2F%2Ftracker.openbittorrent.com%3A80&amp;tr=udp%3A%2F%2Fopen.demonii.com%3A1337&amp;tr=udp%3A%2F%2Ftracker.coppersurfer.tk%3A6969&amp;tr=udp%3A%2F%2Fexodus.desync.com%3A6969","seeders":0,"leechers":1,"uploader":"TvTeam","files":5,"time":1307647833,"description":". \n  &lt;a href=&quot;\nhttp://www.torrenting.com/&quot; rel=&quot;nofollow&quot; target=&quot;_NEW&quot;&gt;\nhttp://www.torrenting.com/&lt;/a&gt;        :     Greatest Movie Tracker on The Net!!!\n &lt;a href=&quot;\nhttp://www.Torrenting.com&quot; rel=&quot;nofollow&quot; target=&quot;_NEW&quot;&gt;\nhttp://www.Torrenting.com&lt;/a&gt;          :     Once &amp; For all ;)\n\n\n               www . Torrenting . Com \n\n(((((((((((((= Enjoy No RAR releases =))))))))))))))))))))\n\n\n...................................NFO:....................................\n\n.[img]http://www.comingsoon.net/gallery/40435/Take_Me_Home_Tonight_3.jpg[img]                                        \n \n\n                  ::::::::::::  EP1C Presents  ::::::::::::\n\n::File:: Take.Me.Home.Tonight.2011.DVDRip.XViD-EP1C\n\n::Video Source:: DVD\n\n::Language:::::: English\n::IMDB:::::::::: http://www.imdb.com/title/tt0810922/\nFollow an aimless college grad who pursues his dream girl at\n a wild Labor Day weekend party. He, his twin sister and their \nbest friend struggle with their burgeoning adulthood over the course of the night. \n\n::Specs:::::::::\n\nFormat                           : AVI\nFormat/Info                      : Audio Video Interleave\nFile size                        : 699 MiB\nDuration                         : 1h 37mn\nOverall bit rate                 : 1 005 Kbps\nWriting application              : VirtualDubMod 1.5.10.2 (build 2540/release)\nWriting library                  : VirtualDubMod build 2540/release\n\nVideo\nID                               : 0\nFormat                           : MPEG-4 Visual\nFormat profile                   : Advanced Simple@L5\nFormat settings, BVOP            : 2\nFormat settings, QPel            : No\nFormat settings, GMC             : No warppoints\nFormat settings, Matrix          : Default (H.263)\nMuxing mode                      : Packed bitstream\nCodec ID                         : XVID\nCodec ID/Hint                    : XviD\nDuration                         : 1h 37mn\nBit rate                         : 861 Kbps\nWidth                            : 624 pixels\nHeight                           : 256 pixels\nDisplay aspect ratio             : 2.40:1\nFrame rate                       : 23.976 fps\nColor space                      : YUV\nChroma subsampling               : 4:2:0\nBit depth                        : 8 bits\nScan type                        : Progressive\nCompression mode                 : Lossy\nBits/(Pixel*Frame)               : 0.225\nStream size                      : 599 MiB (86%)\nWriting library                  : XviD 1.2.1 (UTC 2008-12-04)\n\nAudio\nID                               : 1\nFormat                           : MPEG Audio\nFormat version                   : Version 1\nFormat profile                   : Layer 3\nMode                             : Joint stereo\nMode extension                   : MS Stereo\nCodec ID                         : 55\nCodec ID/Hint                    : MP3\nDuration                         : 1h 37mn\nBit rate mode                    : Variable\nBit rate                         : 128 Kbps\nChannel(s)                       : 2 channels\nSampling rate                    : 48.0 KHz\nCompression mode                 : Lossy\nStream size                      : 91.5 MiB (13%)\nAlignment                        : Aligned on interleaves\nInterleave, duration             : 24 ms (0.58 video frame)\nInterleave, preload duration     : 224 ms\n    \n\n::NOTES::::::::: \nPresents Take Me Home Tonight\nEnjoy. // EP1C\n\n:: Got something we might be interested in? contact us: &lt;a class=&quot;__cf_email__&quot; href=&quot;/cdn-cgi/l/email-protection&quot; data-cfemail=&quot;0f6a7f666c4f677a7c67626e666321626a&quot;&gt;[email&amp;#160;protected]&lt;/a&gt;&lt;script cf-hash='f9e31' type=&quot;text/javascript&quot;&gt;\n/* &lt;![CDATA[ */!function(){try{var t=&quot;currentScript&quot;in document?document.currentScript:function(){for(var t=document.getElementsByTagName(&quot;script&quot;),e=t.length;e--;)if(t[e].getAttribute(&quot;cf-hash&quot;))return t[e]}();if(t&amp;&amp;t.previousSibling){var e,r,n,i,c=t.previousSibling,a=c.getAttribute(&quot;data-cfemail&quot;);if(a){for(e=&quot;&quot;,r=parseInt(a.substr(0,2),16),n=2;a.length-n;n+=2)i=parseInt(a.substr(n,2),16)^r,e+=String.fromCharCode(i);e=document.createTextNode(e),c.parentNode.replaceChild(e,c)}}}catch(u){}}();/* ]]&gt; */&lt;/script&gt; ::\n\n::::::::::::::::::::::::::::::::  RESPECT  :::::::::::::::::::::::::::::::::\nIMAGiNE, Rx, FLAWL3SS, ViSiON, T0XiC, HiVE, bobwhite &amp; All Our Friends!\n\n                 ::::::::::::::::  We Are  ::::::::::::::::  \n               :::::: Surpassing the usual or ordinary ::::::\n::::::::::::::::::    Heroic and impressive in quality    ::::::::::::::::::     \n ::::::::::::::::::::::::::::::::   EP1C   ::::::::::::::::::::::::::::::::\n\n","torrent":{"xt":"urn:btih:fee807e33804cbd1792fb9a70b379c2da702a0f1","amp;dn":"Take.Me.Home.Tonight.2011.DVDRip.XViD-EP1C","amp;tr":["udp%3A%2F%2Ftracker.openbittorrent.com%3A80","udp%3A%2F%2Fopen.demonii.com%3A1337","udp%3A%2F%2Ftracker.coppersurfer.tk%3A6969","udp%3A%2F%2Fexodus.desync.com%3A6969"],"infoHash":"fee807e33804cbd1792fb9a70b379c2da702a0f1","infoHashBuffer":{"type":"Buffer","data":[254,232,7,227,56,4,203,209,121,47,185,167,11,55,156,45,167,2,160,241]},"announce":[],"urlList":[]}}